<?xml version="1.0" encoding="UTF-8"?>
<!DOCTYPE svg PUBLIC "-//W3C//DTD SVG 1.1//EN" "http://www.w3.org/Graphics/SVG/1.1/DTD/svg11.dtd">
<!-- Creator: CorelDRAW X7 -->
<svg xmlns="http://www.w3.org/2000/svg" xml:space="preserve" width="210mm" height="297mm" version="1.1" style="shape-rendering:geometricPrecision; text-rendering:geometricPrecision; image-rendering:optimizeQuality; fill-rule:evenodd; clip-rule:evenodd"
viewBox="0 0 21000 29700"
 xmlns:xlink="http://www.w3.org/1999/xlink">
 <defs>
  <style type="text/css">
   <![CDATA[
    .fil0 {fill:#84C102}
    .fil1 {fill:#0D0D0D;fill-rule:nonzero}
   ]]>
  </style>
 </defs>
 <g id="Слой_x0020_1">
  <metadata id="CorelCorpID_0Corel-Layer"/>
  <path class="fil0" d="M6338 11455c0,27 4,54 -20,57 -9,2 -135,2 -153,-1 -28,-6 -35,-10 -39,-41 -10,-79 61,-52 85,-48 24,5 43,9 67,14 29,6 51,17 60,19zm298 255l0 -35c55,-29 54,-19 117,-72 16,-14 31,-33 44,-50 12,-17 25,-41 34,-61l27 -67c21,-55 -2,-37 -33,-36l-143 0c-20,0 -29,3 -46,3l0 -286 123 0c9,0 6,2 9,8l18 43c4,7 9,17 14,23 27,34 50,50 88,66 19,8 23,9 23,23 0,124 -38,228 -92,309 -5,7 -14,18 -20,25 -33,35 -99,90 -145,102 -8,2 -11,1 -18,5zm-432 -507c-27,0 -44,3 -72,3 -24,0 -49,0 -74,0 -17,32 -41,69 17,89l60 20c-4,7 -10,9 -16,15 -74,67 -64,82 -64,177l0 206c0,26 -3,40 -3,66l192 0c0,-17 3,-20 3,-38l0 -60 300 0 0 -400 -297 0 42 -130c4,-12 11,-33 12,-45l275 0 0 673 49 0c39,0 118,-47 143,-65 84,-63 140,-149 170,-251 21,-69 46,-177 27,-257 -60,0 -109,-45 -132,-91 -10,-21 -11,-37 -17,-61l-523 0c-36,0 -44,-4 -68,76 -7,24 -14,53 -24,73z"/>
  <g id="_617846816">
   <path class="fil1" d="M7660 11485l-232 0 0 250 -120 0 0 -602 394 0 0 93 -274 0 0 166 232 0 0 93zm364 184c-13,24 -31,42 -52,55 -21,13 -46,20 -74,20 -47,0 -84,-16 -111,-48 -26,-32 -40,-82 -40,-149l0 -259 121 0 0 260c0,39 5,66 16,80 10,15 27,22 49,22 19,0 36,-3 50,-9 13,-7 25,-16 34,-28l0 -325 120 0 0 447 -100 0 -13 -66zm331 66l-121 0 0 -645 121 0 0 645zm226 0l-120 0 0 -645 120 0 0 645zm343 -218l-57 0 0 218 -49 0 0 -645 49 0 0 384 53 0 166 -186 57 0 1 2 -179 201 198 242 -1 2 -57 0 -181 -218zm592 218c-3,-16 -5,-29 -6,-41 -2,-11 -3,-22 -3,-34 -15,24 -37,44 -65,60 -27,16 -59,24 -95,24 -44,0 -78,-12 -102,-35 -24,-24 -37,-55 -37,-95 0,-40 18,-73 53,-97 35,-25 80,-38 136,-38l110 0 0 -55c0,-32 -10,-57 -30,-75 -20,-18 -49,-28 -86,-28 -34,0 -61,9 -82,26 -21,16 -31,37 -31,62l-46 0 -1 -3c-1,-33 13,-63 43,-88 31,-26 71,-39 120,-39 49,0 88,13 118,38 30,25 45,61 45,108l0 220c0,16 0,31 2,46 2,15 5,29 9,44l-52 0zm-164 -35c38,0 71,-9 99,-27 27,-18 46,-41 56,-70l0 -86 -110 0c-40,0 -73,10 -100,29 -26,19 -39,42 -39,69 0,26 8,46 25,62 17,15 40,23 69,23zm604 -79c0,-21 -8,-39 -26,-55 -17,-15 -48,-28 -93,-38 -53,-12 -93,-27 -118,-46 -26,-19 -38,-46 -38,-81 0,-34 14,-63 43,-86 29,-24 67,-36 114,-36 51,0 90,13 120,38 29,25 44,56 42,93l-1 3 -46 0c0,-25 -10,-46 -31,-64 -21,-18 -49,-28 -84,-28 -36,0 -63,8 -81,24 -18,15 -27,34 -27,55 0,20 8,37 23,51 16,13 47,25 93,35 54,12 93,29 120,49 26,21 40,49 40,84 0,37 -16,67 -46,90 -30,23 -70,35 -119,35 -55,0 -97,-13 -128,-39 -31,-26 -46,-57 -44,-93l0 -2 46 0c2,32 15,55 39,70 25,15 54,22 87,22 35,0 64,-8 84,-24 21,-15 31,-34 31,-57zm271 -104l-57 0 0 218 -50 0 0 -645 50 0 0 384 52 0 166 -186 58 0 1 2 -179 201 197 242 -1 2 -57 0 -180 -218zm281 -12c0,-66 18,-120 54,-162 36,-43 84,-64 143,-64 60,0 108,21 144,64 36,42 54,96 54,162l0 13c0,67 -17,121 -53,163 -36,42 -84,63 -144,63 -60,0 -108,-21 -144,-63 -36,-42 -54,-96 -54,-163l0 -13zm49 13c0,52 14,96 40,131 26,35 62,53 109,53 46,0 82,-18 109,-53 26,-35 39,-79 39,-131l0 -13c0,-51 -13,-95 -39,-130 -27,-36 -63,-54 -110,-54 -46,0 -82,18 -108,54 -26,35 -40,79 -40,130l0 13z"/>
   <path class="fil1" d="M11015 11735l-51 0 0 -44 51 0 0 44zm156 0c-2,-4 -3,-9 -4,-14 -2,-4 -3,-9 -3,-14 -5,9 -12,17 -21,23 -8,6 -18,9 -30,9 -20,0 -35,-5 -45,-16 -11,-10 -16,-23 -16,-41 0,-18 7,-32 21,-42 14,-10 35,-15 62,-15l28 0 0 -15c0,-9 -2,-16 -7,-21 -5,-5 -12,-7 -21,-7 -8,0 -15,2 -19,6 -5,4 -7,9 -7,16l-48 0 0 -1c-1,-16 6,-29 20,-41 15,-11 34,-17 57,-17 22,0 41,6 54,17 14,11 21,27 21,48l0 77c0,9 1,17 2,25 1,8 4,15 6,23l-50 0zm-46 -34c9,0 17,-2 24,-6 7,-5 11,-10 14,-15l0 -27 -28 0c-11,0 -19,3 -25,8 -5,6 -8,12 -8,20 0,6 2,11 6,15 4,3 10,5 17,5zm182 -5l92 0 0 39 -154 0 0 -30 88 -118 -86 0 0 -38 149 0 0 28 -89 119z"/>
  </g>
 </g>
</svg>
